<?xml version="1.0" encoding="utf-8"?>
<!-- Generator: Adobe Illustrator 24.0.1, SVG Export Plug-In . SVG Version: 6.00 Build 0)  -->
<svg version="1.1" id="Layer_2_1_" xmlns="http://www.w3.org/2000/svg" xmlns:xlink="http://www.w3.org/1999/xlink" x="0px" y="0px"
	 viewBox="0 0 152.5 32.5" style="enable-background:new 0 0 152.5 32.5;" xml:space="preserve">
<style type="text/css">
	.st0{fill:#666666;}
	.st1{fill:#4C598E;}
</style>
<g>
	<path class="st0" d="M50.6,21.7v-2.4h2.3l-2.3-6l-3.3,8.4h-2.7l4.8-12h2.4l4.8,12H50.6z"/>
	<path class="st0" d="M73.1,15.7l-4.5-6h3l3,4l3-4h3l-4.5,6l4.5,6h-3l-3-4l-3,4h-3L73.1,15.7z"/>
	<path class="st0" d="M99.7,9.7v12h-2.4v-12C97.3,9.7,99.7,9.7,99.7,9.7z"/>
	<path class="st0" d="M116.5,21.7v-12h12v12H116.5z M126.1,19.3v-7.2h-7.2v7.2H126.1z"/>
	<path class="st0" d="M140.5,21.7v-12h2.4l7.2,8.5V9.7h2.4v12h-2.4l-7.2-8.2v8.2H140.5z"/>
</g>
<g>
	<path class="st1" d="M5.9,16.2c0.1-0.3,0.2-0.7,0.4-0.9c1.2-2.2,2.5-4.3,3.8-6.5C10.4,8,11.1,8,11.6,8.7c1.6,2.1,3.1,4.3,4.7,6.4
		c0.5,0.7,0.5,1.3,0,1.9c-1.6,2.2-3.2,4.4-4.8,6.6c-0.5,0.7-1.2,0.6-1.6-0.1c-1.2-2.1-2.5-4.3-3.7-6.4C6.1,16.9,6,16.5,5.9,16.2z"/>
	<path class="st1" d="M19.5,28c-1.5,0-2.9,0-4.4,0c-0.1,0-0.2,0-0.3,0c-0.4,0-0.6-0.2-0.7-0.5c-0.2-0.3,0-0.5,0.1-0.7
		c1.7-2.3,3.4-4.7,5.1-7c0.2-0.3,0.3-0.3,0.5,0c0.9,1.2,1.8,2.4,2.7,3.6c0.8,1.1,1.7,2.3,2.5,3.4c0.3,0.5,0,1.1-0.5,1.2
		c-0.1,0-0.3,0-0.4,0C22.5,28,21,28,19.5,28z"/>
	<path class="st1" d="M19.6,4.4c1.5,0,2.9,0,4.4,0c0.3,0,0.6,0.1,0.8,0.4c0.2,0.3,0.2,0.5,0,0.9c-1.4,2-2.8,3.9-4.2,5.9
		c-0.2,0.3-0.5,0.6-0.7,0.9c-0.3,0.4-0.3,0.4-0.6,0c-0.4-0.5-0.8-1.1-1.2-1.6c-1.2-1.7-2.5-3.4-3.7-5.1c-0.2-0.3-0.3-0.5-0.1-0.8
		c0.2-0.3,0.4-0.5,0.8-0.5c1.1,0,2.1,0,3.2,0C18.8,4.4,19.2,4.4,19.6,4.4z"/>
	<path class="st1" d="M8.4,27c-2.3-3.5-4.6-7-6.9-10.6c-0.1-0.1-0.1-0.3,0-0.4c2.3-3.5,4.6-7.1,7-10.6c0,0,0-0.1,0.1-0.1
		C8,6.5,7.5,7.6,6.9,8.7c-1.1,2.4-2.3,4.8-3.4,7.2c-0.1,0.2-0.1,0.4,0,0.6c1.6,3.4,3.2,6.8,4.8,10.2C8.4,26.8,8.4,26.9,8.4,27
		C8.4,27,8.4,27,8.4,27z"/>
	<path class="st1" d="M30.4,26.9c0.6-1.3,1.3-2.7,1.9-4c1-2.1,2-4.3,3-6.4c0.1-0.2,0.1-0.4,0-0.7c-1.6-3.4-3.3-6.9-4.9-10.3
		c0-0.1-0.1-0.1-0.1-0.2c0.1,0.1,0.1,0.2,0.2,0.2c2.3,3.4,4.5,6.9,6.8,10.3c0.1,0.2,0.2,0.3,0,0.5c-2.3,3.5-4.6,7-6.9,10.5
		C30.5,26.8,30.5,26.8,30.4,26.9C30.5,26.9,30.4,26.9,30.4,26.9z"/>
	<path class="st1" d="M11.4,1.4C13,1.2,14.6,1,16.2,0.8c1.1-0.1,2.1-0.3,3.2-0.4c0.4,0,0.9,0.1,1.3,0.1c1.2,0.1,2.4,0.3,3.7,0.4
		c1.1,0.1,2.2,0.3,3.5,0.4c-1,0.1-1.9,0.2-2.8,0.3c-1.2,0.1-2.4,0.3-3.6,0.4c-0.6,0.1-1.2,0.2-1.9,0.2c-0.7,0-1.4-0.1-2.1-0.2
		C16.3,2,15.2,1.8,14,1.7C13.2,1.6,12.3,1.5,11.4,1.4z"/>
	<path class="st1" d="M11.5,31c1.6-0.2,3.1-0.4,4.7-0.6c1.1-0.1,2.2-0.3,3.2-0.4c0.4,0,0.9,0.1,1.3,0.1c1.4,0.2,2.9,0.3,4.3,0.5
		c0.9,0.1,1.8,0.2,2.9,0.3c-1,0.1-1.9,0.2-2.8,0.3c-1.4,0.2-2.8,0.3-4.1,0.5c-1.1,0.2-2.3,0.1-3.4-0.1c-1.3-0.2-2.7-0.3-4-0.5
		C12.8,31.2,12.1,31.1,11.5,31C11.5,31,11.5,31,11.5,31z"/>
	<path class="st1" d="M33.2,16.2c-0.1-0.3-0.2-0.7-0.4-0.9c-1.2-2.2-2.5-4.3-3.8-6.5C28.7,8,28,8,27.5,8.7c-1.6,2.1-3.1,4.3-4.7,6.4
		c-0.5,0.7-0.5,1.3,0,1.9c1.6,2.2,3.2,4.4,4.8,6.6c0.5,0.7,1.2,0.6,1.6-0.1c1.2-2.1,2.5-4.3,3.7-6.4C33.1,16.9,33.1,16.5,33.2,16.2z
		"/>
</g>
</svg>
